<?xml version="1.0" encoding="UTF-8" standalone="no"?>
<svg
   xmlns:dc="http://purl.org/dc/elements/1.1/"
   xmlns:cc="http://creativecommons.org/ns#"
   xmlns:rdf="http://www.w3.org/1999/02/22-rdf-syntax-ns#"
   xmlns:svg="http://www.w3.org/2000/svg"
   xmlns="http://www.w3.org/2000/svg"
   xmlns:sodipodi="http://sodipodi.sourceforge.net/DTD/sodipodi-0.dtd"
   xmlns:inkscape="http://www.inkscape.org/namespaces/inkscape"
   width="1024pt"
   height="768pt"
   viewBox="0 0 1024 768"
   version="1.1"
   id="svg2"
   inkscape:version="0.48.4 r9939"
   sodipodi:docname="logo.svg"
   inkscape:export-filename="/home/fjerlv/git/deathquake/artwork/#fe0000ff11.png"
   inkscape:export-xdpi="15.954068"
   inkscape:export-ydpi="15.954068">
  <metadata
     id="metadata14">
    <rdf:RDF>
      <cc:Work
         rdf:about="">
        <dc:format>image/svg+xml</dc:format>
        <dc:type
           rdf:resource="http://purl.org/dc/dcmitype/StillImage" />
        <dc:title></dc:title>
      </cc:Work>
    </rdf:RDF>
  </metadata>
  <defs
     id="defs12" />
  <sodipodi:namedview
     pagecolor="#000000"
     bordercolor="#666666"
     borderopacity="1"
     objecttolerance="10"
     gridtolerance="10"
     guidetolerance="10"
     inkscape:pageopacity="0"
     inkscape:pageshadow="2"
     inkscape:window-width="1920"
     inkscape:window-height="1031"
     id="namedview10"
     showgrid="false"
     inkscape:zoom="0.98333333"
     inkscape:cx="651.82527"
     inkscape:cy="467.63102"
     inkscape:window-x="0"
     inkscape:window-y="25"
     inkscape:window-maximized="1"
     inkscape:current-layer="svg2" />
  <g
     id="#000000ff" />
  <g
     id="#fe0000ff"
     inkscape:export-xdpi="15.994505"
     inkscape:export-ydpi="15.994505"
     style="stroke:none;stroke-opacity:1;stroke-width:0;stroke-miterlimit:4;stroke-dasharray:none;fill:#000000;fill-opacity:1"
     inkscape:export-filename="/home/fjerlv/git/deathquake/web/stats/static/img/logo2.png">
    <path
       fill="#fe0000"
       opacity="1.00"
       d=" M 440.99 105.00 C 457.87 98.41 475.99 95.96 493.94 94.43 C 506.65 93.90 519.49 93.72 532.05 96.06 C 552.84 99.02 573.00 105.76 591.73 115.21 C 616.71 127.28 639.00 145.14 655.60 167.42 C 665.59 180.95 672.73 196.68 675.73 213.26 C 680.40 233.84 676.97 255.13 672.32 275.39 C 668.70 291.35 664.80 307.24 661.12 323.19 C 660.07 327.97 658.37 332.68 658.32 337.62 C 667.75 341.18 678.09 341.09 687.62 344.31 C 693.17 346.18 698.80 347.80 704.42 349.44 C 711.84 351.67 718.76 355.38 725.02 359.91 C 728.42 362.43 731.25 366.83 730.32 371.18 C 727.14 379.70 718.73 384.57 710.76 387.89 C 696.03 393.95 680.36 397.41 664.68 399.98 C 651.74 402.79 638.61 404.77 625.42 405.82 C 614.52 407.69 603.44 407.81 592.44 408.69 C 584.99 409.52 577.48 409.25 570.04 410.17 C 562.95 410.91 555.78 409.75 548.72 410.74 C 546.94 412.96 547.18 416.07 546.74 418.75 C 546.20 430.83 545.15 442.89 544.46 454.97 C 544.42 465.35 542.37 475.59 542.38 485.97 C 542.41 492.00 541.83 498.00 541.10 503.99 C 539.95 512.15 540.76 520.43 539.70 528.61 C 538.86 535.47 538.69 542.41 537.69 549.26 C 536.03 547.63 535.82 545.25 535.75 543.07 C 535.51 530.58 535.98 518.08 535.32 505.60 C 533.84 492.93 535.21 480.16 534.27 467.47 C 532.79 455.69 534.40 443.77 533.05 431.98 C 532.19 424.89 533.10 417.72 532.21 410.63 C 531.85 407.18 531.08 403.58 532.13 400.18 C 537.36 399.20 542.74 399.77 548.01 399.10 C 555.36 398.24 562.78 399.04 570.13 398.17 C 575.74 397.52 581.36 396.84 587.02 396.66 C 602.12 396.29 617.00 393.54 631.97 391.82 C 650.91 388.15 670.29 385.52 688.24 378.13 C 693.63 375.75 699.47 372.86 702.31 367.41 C 703.88 363.14 700.87 358.95 697.51 356.60 C 692.41 352.82 686.16 351.21 680.38 348.81 C 672.93 345.84 664.93 344.77 657.24 342.61 C 657.08 345.96 657.09 349.47 658.51 352.60 C 660.16 356.54 662.43 360.53 661.98 364.97 C 661.52 369.66 659.40 374.04 656.87 377.94 C 654.86 381.31 650.49 381.32 647.14 382.37 C 640.08 383.80 632.88 387.00 625.59 385.44 C 622.18 384.69 622.63 380.68 622.22 378.04 C 622.09 370.51 614.02 365.32 606.99 366.02 C 599.25 366.62 592.02 369.92 585.00 373.02 C 580.23 374.57 581.98 380.53 580.08 384.13 C 577.85 385.68 575.02 385.83 572.43 386.27 C 559.58 387.89 546.60 388.08 533.73 389.40 C 521.35 390.62 508.89 390.97 496.47 390.38 C 481.61 389.02 466.57 389.42 451.83 387.05 C 449.00 383.71 447.75 378.70 449.62 374.60 C 450.02 372.85 451.36 371.13 450.91 369.31 C 448.15 366.02 443.36 365.10 439.37 366.36 C 430.53 368.90 422.55 373.78 415.12 379.10 C 411.96 381.25 409.27 384.14 405.77 385.76 C 400.75 386.61 395.60 385.95 390.57 385.39 C 381.21 383.79 371.83 381.74 363.07 377.99 C 360.59 377.10 358.76 374.68 358.91 372.00 C 359.03 368.36 360.06 364.82 360.30 361.19 C 360.75 356.90 360.22 352.51 361.17 348.28 C 363.50 346.19 366.35 344.81 368.97 343.12 C 355.26 345.02 341.23 347.16 328.95 353.97 C 325.08 356.15 321.09 358.97 319.47 363.28 C 319.13 368.07 323.14 371.71 326.74 374.24 C 332.64 378.59 340.03 379.73 346.75 382.25 C 350.75 383.72 354.84 384.98 359.04 385.81 C 372.65 388.39 386.16 391.67 399.98 393.00 C 414.93 395.19 429.98 396.47 445.04 397.55 C 454.45 399.00 464.00 398.25 473.43 399.38 C 479.06 400.06 484.93 398.68 490.40 400.46 C 491.03 407.07 490.07 413.69 489.59 420.28 C 488.92 432.43 490.03 444.64 488.72 456.76 C 487.85 469.80 488.92 482.92 487.74 495.95 C 487.08 504.55 487.82 513.19 486.77 521.76 C 485.80 530.91 487.13 540.17 485.68 549.27 C 483.30 545.60 483.77 541.11 483.64 536.96 C 483.63 531.23 482.55 525.59 482.17 519.89 C 481.29 512.24 482.05 504.51 481.03 496.88 C 479.36 484.74 479.78 472.45 478.35 460.29 C 477.12 451.61 478.22 442.80 476.69 434.16 C 475.54 427.22 475.87 420.19 475.46 413.21 C 475.53 409.81 471.32 410.50 469.06 410.33 C 461.34 410.61 453.64 410.32 445.96 409.51 C 434.93 409.54 423.95 408.43 412.97 407.52 C 405.26 407.26 397.67 405.79 389.99 405.20 C 381.25 404.38 372.64 402.58 363.99 401.15 C 349.51 398.64 334.92 396.14 321.05 391.15 C 313.24 388.37 305.25 385.49 298.60 380.42 C 294.58 377.25 291.03 371.98 292.63 366.67 C 295.63 359.79 302.58 355.81 309.21 353.02 C 320.96 348.01 333.34 344.64 345.76 341.75 C 354.12 340.29 362.45 338.67 370.72 336.79 C 368.46 332.42 364.99 328.88 361.98 325.04 C 355.58 317.16 350.41 308.18 347.68 298.36 C 345.26 289.36 343.54 280.15 342.51 270.89 C 341.84 253.59 341.97 236.28 342.17 218.98 C 342.04 210.02 344.71 201.40 346.78 192.78 C 348.28 186.59 350.23 180.32 354.32 175.30 C 363.32 163.76 373.44 153.11 383.96 142.95 C 400.45 127.01 419.51 113.33 440.99 105.00 M 372.26 250.04 C 369.53 251.83 368.79 255.30 368.34 258.32 C 367.61 265.07 368.92 271.86 370.62 278.38 C 373.37 288.26 377.34 298.06 384.09 305.92 C 387.92 310.46 393.90 311.99 399.34 313.67 C 415.07 318.18 431.15 321.58 447.40 323.60 C 456.61 324.93 465.64 321.86 474.36 319.31 C 480.43 317.18 486.82 315.50 492.17 311.80 C 490.62 308.36 486.77 307.04 483.73 305.28 C 451.38 288.68 419.57 271.04 386.86 255.16 C 382.13 253.16 377.53 250.10 372.26 250.04 M 636.38 253.32 C 610.69 260.54 589.81 277.93 567.05 291.05 C 554.74 298.45 541.26 303.74 529.09 311.36 C 531.76 314.60 535.99 315.75 539.70 317.34 C 548.79 320.66 558.21 324.03 568.04 323.72 C 573.08 323.62 578.06 322.78 583.04 322.08 C 594.28 320.49 605.53 318.71 616.43 315.50 C 622.82 313.61 629.45 311.83 634.96 307.93 C 640.43 304.00 643.17 297.54 645.53 291.46 C 648.66 282.60 652.28 273.57 651.91 264.01 C 651.72 260.16 652.24 256.04 650.53 252.46 C 646.00 250.52 640.92 252.20 636.38 253.32 M 505.23 325.16 C 501.17 328.41 499.40 333.57 496.86 337.95 C 493.98 343.87 490.29 349.33 487.05 355.03 C 484.46 359.13 487.95 363.47 490.13 366.87 C 491.38 368.14 492.47 371.07 494.68 369.99 C 496.02 368.03 496.83 365.79 497.69 363.60 C 501.29 353.72 505.48 343.99 507.67 333.66 C 508.11 331.21 508.50 328.67 507.99 326.20 C 507.35 325.03 506.43 324.69 505.23 325.16 M 517.10 330.83 C 515.68 336.44 515.71 342.31 515.86 348.05 C 515.96 352.30 518.95 355.58 520.74 359.22 C 523.14 363.56 523.86 368.71 527.01 372.65 C 530.82 368.71 533.52 363.46 534.27 358.03 C 533.16 351.48 528.99 345.98 525.71 340.34 C 523.23 336.91 521.33 332.41 517.10 330.83 Z"
       id="path6"
       style="stroke:none;stroke-opacity:1;stroke-width:0;stroke-miterlimit:4;stroke-dasharray:none;fill:#000000;fill-opacity:1" />
    <path
       fill="#fe0000"
       opacity="1.00"
       d=" M 502.59 398.61 C 507.22 397.92 512.18 397.69 516.66 399.27 C 519.00 405.89 518.53 413.11 517.94 419.99 C 517.12 426.62 517.61 433.33 516.92 439.98 C 516.50 443.97 516.36 447.98 516.36 451.99 C 516.51 465.04 513.86 477.95 514.37 491.00 C 514.02 506.35 512.27 521.65 512.30 537.01 C 512.11 542.00 511.40 546.97 511.39 551.97 C 511.39 555.78 510.98 559.66 509.44 563.19 C 506.93 552.20 508.14 540.89 507.26 529.76 C 506.59 523.53 506.71 517.25 506.04 511.03 C 505.32 504.00 505.95 496.91 505.17 489.89 C 504.28 482.83 504.98 475.69 504.25 468.63 C 503.26 460.46 503.89 452.21 502.83 444.04 C 502.56 434.35 501.39 424.70 501.61 414.99 C 501.74 409.54 500.91 403.90 502.59 398.61 Z"
       id="path8"
       style="stroke:none;stroke-opacity:1;stroke-width:0;stroke-miterlimit:4;stroke-dasharray:none;fill:#000000;fill-opacity:1" />
  </g>
</svg>
